What is Hi10P ?

Hi10P is the advanced version of the normal x264. This gives more quality for the same size. 
You have the ability to watch Ultra Quality movies with the new Hi10P encodes.

Hi10P needs Updated, Advanced video players. 

i recommend VLC or Media Player Classic because it's pretty easy.
But, you can select any of your choice.(if problem to play then intsall k-lite codecs pack)


 
http://en.wikipedia.org/wiki/Bol_Bachchan]
 
http://www.imdb.com/title/tt1728986/

Source                                   : DVD9
Format                                   : Matroska
Format version                           : Version 2
File size                                : 2.45 GiB
Duration                                 : 2h 23mn
Overall bit rate                         : 2 448 Kbps


Video
ID                                       : 1
Format                                   : AVC
Format/Info                              : Advanced Video Codec
Format profile                           : High 10@L4.1
Format settings, CABAC                   : Yes
Format settings, ReFrames                : 4 frames
Muxing mode                              : Header stripping
Codec ID                                 : V_MPEG4/ISO/AVC
Duration                                 : 2h 23mn
Bit rate                                 : 2 000 Kbps
Width                                    : 1 280 pixels
Height                                   : 536 pixels
Display aspect ratio                     : 2.35:1
Frame rate                               : 23.976 fps
Color space                              : YUV
Chroma subsampling                       : 4:2:0
Bit depth                                : 10 bits
Scan type                                : Progressive
Stream size                              : 1.96 GiB (80%)


Audio
ID                                       : 2
Format                                   : AC-3
Bit rate mode                            : Constant
Bit rate                                 : 448 Kbps
Channel(s)                               : 6 channels
Channel positions                        : Front: L C R, Side: L R, LFE
Sampling rate                            : 48.0 KHz
Bit depth                                : 16 bits
Compression mode                         : Lossy
Stream size                              : 460 MiB (18%)
Language                                 : Hindi
Subtitles                                : English


 
http://www.shotpix.com/images/07505105903528766358.png
 
http://www.shotpix.com/images/68715093909833323466.png
 
http://www.shotpix.com/images/99673876629839574558.png
 
http://www.shotpix.com/images/33630498965004649204.png
 
http://www.shotpix.com/images/50343405864361503198.png
 
http://www.shotpix.com/images/43641811463057395449.png
 
http://www.shotpix.com/images/28692812151138312950.png
 
http://www.shotpix.com/images/13649698607174155550.png

                                  Check the sample First